<?xml version="1.0" encoding="UTF-8"?>
<svg xmlns="http://www.w3.org/2000/svg" version="1.1" viewBox="0 0 256 256">
  <!-- Generator: Adobe Illustrator 29.7.1, SVG Export Plug-In . SVG Version: 2.1.1 Build 8)  -->
  <defs>
    <style>
      .st0 {
        fill: #f7b2c1;
      }

      .st1 {
        fill: #231f20;
      }

      .st2 {
        fill: #fff;
      }

      .st3 {
        fill: none;
        stroke: #8d9093;
        stroke-miterlimit: 10;
        stroke-width: 10px;
      }

      .st4 {
        fill: #38262d;
      }

      .st5 {
        fill: #8d9093;
      }

      .st6 {
        fill: #7e8387;
      }
    </style>
  </defs>
  <g id="Layer_8">
    <g>
      <path class="st2" d="M128,254.06c-33.67,0-65.33-13.11-89.14-36.92S1.94,161.67,1.94,128,15.05,62.67,38.86,38.86C62.67,15.05,94.33,1.94,128,1.94s65.33,13.11,89.14,36.92c23.81,23.81,36.92,55.47,36.92,89.14s-13.11,65.33-36.92,89.14c-23.81,23.81-55.47,36.92-89.14,36.92Z"/>
      <path class="st1" d="M128,256c-34.19,0-66.33-13.31-90.51-37.49S0,162.19,0,128,13.31,61.67,37.49,37.49C61.67,13.31,93.81,0,128,0s66.33,13.31,90.51,37.49c24.18,24.18,37.49,56.32,37.49,90.51s-13.31,66.33-37.49,90.51c-24.18,24.18-56.32,37.49-90.51,37.49ZM128,3.88c-33.15,0-64.32,12.91-87.76,36.35C16.79,63.68,3.88,94.85,3.88,128s12.91,64.32,36.35,87.76c23.44,23.44,54.61,36.35,87.76,36.35s64.32-12.91,87.76-36.35c23.44-23.44,36.35-54.61,36.35-87.76s-12.91-64.32-36.35-87.76C192.32,16.79,161.15,3.88,128,3.88Z"/>
    </g>
    <circle class="st4" cx="128" cy="128" r="118.14"/>
  </g>
  <g id="Layer_9">
    <g>
      <path class="st3" d="M106.61,221.6c-5-1.14-9.93-2.68-14.73-4.63-11.56-4.69-22.38-11.72-31.76-21.09-9.37-9.37-16.4-20.2-21.09-31.76-4.69-11.56-7.03-23.84-7.03-36.12s2.34-24.57,7.03-36.12c4.69-11.56,11.72-22.38,21.09-31.76,9.37-9.37,20.2-16.4,31.76-21.09"/>
      <polygon class="st5" points="104.25 205.81 128 224 100.38 235.48 104.25 205.81"/>
    </g>
    <g>
      <path class="st3" d="M149.39,34.4c5,1.14,9.93,2.68,14.73,4.63,11.56,4.69,22.38,11.72,31.76,21.09,9.37,9.37,16.4,20.2,21.09,31.76,4.69,11.56,7.03,23.84,7.03,36.12s-2.34,24.57-7.03,36.12c-4.69,11.56-11.72,22.38-21.09,31.76s-20.2,16.4-31.76,21.09"/>
      <polygon class="st5" points="151.75 50.19 128 32 155.62 20.52 151.75 50.19"/>
    </g>
  </g>
  <g id="Layer_7">
    <g>
      <g>
        <path class="st2" d="M214,70.14c-1.36-3.56-4.03-5.5-7.94-5.75-3.06-.2-6.87.65-11.65,2.59-4.52,1.84-9.16,4.36-12.71,6.36-3.33,1.87-6.26,3.58-9.37,5.38l-2.69,1.56c-8.54-7.12-18.77-12.23-28.59-14.87-13.11-3.52-32.65-4-44.64,1.89-8.11,3.98-21.03,12.56-25.32,22.41l-.29-.04c-8.1-1.24-17.49-2.43-25.73-1.92-10.7.66-16.63,4.18-17.65,10.46-.72,4.45.17,8.07,2.63,10.75,4.17,4.53,12.12,5.66,20.32,5.66,4.61,0,9.31-.36,13.45-.68,1.29-.1,2.52-.19,3.65-.27,1.09,15.57,10.16,33.72,27.5,55.05,6.31,7.74,17.84,18.47,31.32,25.33,15.33,7.8,28.69,8.17,38.6,1.08,20.02-14.29,25.61-54.69,24.49-78.36-.26-5.57-1.59-10.77-3.67-15.6l.16-.1c.98-.62,2.46-1.52,4.17-2.57,1.61-.98,3.39-2.07,5.06-3.11,2.97-1.84,6.81-4.32,10.21-7.07,3.61-2.93,6.11-5.66,7.63-8.36,1.89-3.36,2.24-6.67,1.03-9.83Z"/>
        <path class="st1" d="M120.14,62.81c7.43,0,14.86.98,20.92,2.6,9.83,2.64,20.06,7.75,28.59,14.87l2.69-1.56c3.11-1.8,6.05-3.51,9.37-5.38,3.54-2,8.19-4.53,12.71-6.36,4.33-1.76,7.86-2.62,10.77-2.62.3,0,.59,0,.88.03,3.91.25,6.58,2.18,7.94,5.75,1.21,3.16.86,6.47-1.03,9.83-1.52,2.7-4.01,5.44-7.63,8.36-3.4,2.75-7.24,5.22-10.21,7.07-1.67,1.04-3.45,2.13-5.06,3.11-1.71,1.05-3.19,1.95-4.17,2.57l-.16.1c2.08,4.82,3.41,10.02,3.67,15.6,1.12,23.68-4.47,64.07-24.49,78.36-4.72,3.37-10.21,5.06-16.33,5.06-6.74,0-14.24-2.05-22.28-6.14-13.48-6.85-25.02-17.59-31.32-25.33-17.33-21.33-26.41-39.48-27.5-55.05-1.13.07-2.36.17-3.65.27-4.14.32-8.83.68-13.45.68-8.2,0-16.16-1.14-20.32-5.66-2.47-2.68-3.35-6.3-2.63-10.75,1.01-6.28,6.95-9.8,17.65-10.46,1.34-.08,2.71-.12,4.11-.12,7.15,0,14.84,1.01,21.62,2.04l.29.04c4.29-9.85,17.21-18.43,25.32-22.41,6.45-3.17,15.08-4.49,23.72-4.49M120.14,58.7v4.11s0-4.11,0-4.11c-7.09,0-17.27.85-25.54,4.91-3.27,1.61-18.91,9.74-25.82,21.6-6.14-.89-13.01-1.69-19.6-1.69-1.51,0-2.98.04-4.36.13-16.03.99-20.52,8.11-21.45,13.91-1.16,7.18,1.35,11.68,3.67,14.19,4.39,4.77,11.81,6.99,23.35,6.99,4.66,0,9.31-.35,13.45-.66,2.29,15.49,11.47,32.96,27.96,53.25,6.59,8.09,18.62,19.27,32.65,26.4,8.59,4.37,16.71,6.58,24.14,6.58,7.02,0,13.31-1.96,18.72-5.82,5.24-3.74,9.83-9.24,13.66-16.34,3.28-6.1,6.01-13.39,8.11-21.66,3.44-13.58,5.1-29.99,4.44-43.9-.22-4.62-1.12-9.22-2.7-13.71.44-.27.91-.55,1.39-.85,1.61-.98,3.42-2.09,5.1-3.13,3.07-1.91,7.05-4.47,10.63-7.36,4.02-3.26,6.84-6.38,8.62-9.54,2.48-4.41,2.93-9.02,1.29-13.31-1.92-5.06-6.01-8.04-11.52-8.39-.37-.02-.76-.04-1.14-.04-3.45,0-7.47.96-12.32,2.92-4.73,1.92-9.53,4.53-13.18,6.59-3.35,1.89-6.3,3.6-9.42,5.41l-.25.14c-8.22-6.33-18.02-11.22-27.9-13.87-6.6-1.77-14.4-2.74-21.99-2.74h0Z"/>
      </g>
      <path d="M205.9,66.98c-2.66-.17-6.1.62-10.5,2.41-4.38,1.78-8.93,4.26-12.41,6.22-3.31,1.87-6.24,3.57-9.35,5.37l-.82.48c5.05,4.96,8.97,10.74,12.8,16.74.87-.54,1.93-1.19,3.1-1.9,1.61-.98,3.38-2.07,5.05-3.1,2.9-1.8,6.66-4.22,9.95-6.88,3.35-2.72,5.64-5.21,7-7.62,1.52-2.69,1.8-5.19.87-7.63-.99-2.6-2.79-3.9-5.67-4.08Z"/>
      <path d="M30,98.63c-.59,3.68.05,6.49,1.98,8.58,5.65,6.15,21.3,4.95,31.66,4.16.86-.07,1.7-.13,2.49-.19.05-5.38.49-12.14,2.75-19.17-4.97-.75-12.58-1.8-19.77-1.8-9.39,0-18.05,1.8-19.12,8.42Z"/>
      <path class="st1" d="M166.53,115.01c4.09,0,7.4,4.14,7.4,9.25s-3.31,9.25-7.4,9.25-7.4-4.14-7.4-9.25c0-5.11,3.31-9.25,7.4-9.25Z"/>
      <path class="st2" d="M118.16,75.83c3.94-1.8,10.33-1.41,14.42-.19,7.61,2.27,5.17,43.02,4.42,43.25-5.43-6.84-27.65-34.4-27.65-34.4.28-3.78,5.75-7.26,8.8-8.65Z"/>
      <path class="st1" d="M106.43,122.41c4.09,0,7.4,4.14,7.4,9.25s-3.31,9.25-7.4,9.25-7.4-4.14-7.4-9.25,3.31-9.25,7.4-9.25Z"/>
      <path class="st6" d="M118.16,75.83c3.94-1.8,10.33-1.41,14.42-.19,7.61,2.27,5.17,43.02,4.42,43.25-5.42-6.84-27.65-34.4-27.65-34.4.28-3.78,5.75-7.26,8.8-8.65Z"/>
      <circle class="st1" cx="106.43" cy="131.66" r="4.62"/>
      <circle class="st1" cx="166.53" cy="124.26" r="4.6"/>
      <ellipse class="st0" cx="153.42" cy="180.67" rx="13.24" ry="7.22" transform="translate(-20.24 19.36) rotate(-6.78)"/>
    </g>
  </g>
</svg>