<?xml version="1.0" encoding="UTF-8"?>
<svg id="Layer_1" xmlns="http://www.w3.org/2000/svg" version="1.1" viewBox="0 0 3484.51 513.51">
  <!-- Generator: Adobe Illustrator 29.7.1, SVG Export Plug-In . SVG Version: 2.1.1 Build 8)  -->
  <defs>
    <style>
      .st0 {
        fill: #f7b2c1;
      }

      .st1, .st2 {
        stroke: #231f20;
        stroke-width: 10px;
      }

      .st1, .st2, .st3 {
        fill: #fff;
      }

      .st1, .st4, .st5, .st6 {
        stroke-miterlimit: 10;
      }

      .st7 {
        fill: #231f20;
      }

      .st4 {
        stroke-width: 17px;
      }

      .st4, .st5, .st6 {
        fill: none;
        stroke: #8d9093;
      }

      .st5 {
        stroke-width: 14px;
      }

      .st8 {
        fill: #38262d;
      }

      .st6 {
        stroke-width: 20px;
      }

      .st9 {
        fill: #8d9093;
      }

      .st10 {
        fill: #4c5257;
      }

      .st11 {
        fill: #f8baca;
      }

      .st12 {
        fill: #7e8387;
      }
    </style>
  </defs>
  <path class="st2" d="M580.53,400.97l-17.92,102.25h-102.42l60.44-343.98h97.33l36.16,142.48,90.82-142.48h98.16l-60.44,343.98h-102.79l16.42-95.09-57.23,92.05c-3.25,5.22-8.94,8.33-14.98,8.33-.82,0-1.66-.06-2.49-.18-6.92-.98-12.61-5.96-14.5-12.7l-26.57-94.67h0Z"/>
  <path class="st10" d="M624.09,490.87l-42.34-150.82c-1.03-3.82-1.91-7.86-2.65-12.13-.74-4.26-1.47-9.04-2.21-14.33-.15,2.21-.59,6.25-1.32,12.13-.74,5.88-1.47,10.51-2.21,13.89l-25.58,145.97h-66.59l54.24-308.7h68.8l36.6,144.21c2.06,8.09,3.42,14.19,4.08,18.3.66,4.12,1.21,7.87,1.65,11.25,1.62-3.82,3.2-7.35,4.74-10.58,1.54-3.23,3.93-7.35,7.17-12.35l96.14-150.82h67.47l-54.24,308.7h-67.03l25.14-145.53c.73-3.53,1.73-8.16,2.98-13.89,1.25-5.73,2.17-9.77,2.76-12.13-2.79,5.73-5.22,10.58-7.28,14.55-2.06,3.97-4.34,7.94-6.84,11.91l-93.49,150.38Z"/>
  <g>
    <g>
      <path class="st3" d="M464.07,27.81c-3.3-8.66-9.79-13.37-19.29-13.97-7.45-.48-16.71,1.59-28.31,6.31-10.98,4.46-22.27,10.61-30.89,15.46-8.08,4.56-15.22,8.7-22.78,13.08l-6.53,3.78c-20.75-17.3-45.61-29.72-69.5-36.14-31.86-8.55-79.35-9.73-108.5,4.59-19.71,9.68-51.11,30.52-61.53,54.48l-.71-.11c-19.69-3-42.51-5.9-62.53-4.66-26,1.61-40.43,10.16-42.9,25.42-1.75,10.83.4,19.62,6.4,26.14,10.12,11.01,29.46,13.77,49.4,13.77,11.21,0,22.62-.87,32.69-1.64,3.15-.24,6.13-.47,8.88-.65,2.64,37.84,24.7,81.96,66.84,133.8,15.33,18.82,43.37,44.9,76.14,61.56,37.27,18.96,69.72,19.86,93.83,2.63,48.65-34.75,62.26-132.93,59.53-190.47-.64-13.55-3.86-26.19-8.91-37.91l.4-.25c2.38-1.5,5.97-3.7,10.13-6.24,3.92-2.39,8.25-5.04,12.31-7.56,7.21-4.48,16.55-10.49,24.81-17.18,8.78-7.11,14.84-13.76,18.53-20.33,4.6-8.17,5.44-16.21,2.51-23.89Z"/>
      <path class="st7" d="M235.91,10c18.05,0,36.12,2.38,50.84,6.33,23.89,6.42,48.75,18.85,69.5,36.14l6.53-3.78c7.56-4.38,14.7-8.52,22.78-13.08,8.62-4.86,19.91-11,30.89-15.46,10.52-4.28,19.11-6.37,26.17-6.37.73,0,1.44.02,2.14.07,9.5.61,15.99,5.31,19.29,13.97,2.93,7.68,2.09,15.72-2.51,23.89-3.69,6.57-9.76,13.22-18.53,20.33-8.26,6.69-17.6,12.69-24.81,17.18-4.06,2.52-8.39,5.17-12.31,7.56-4.16,2.54-7.75,4.74-10.13,6.24l-.4.25c5.05,11.73,8.28,24.36,8.91,37.91,2.73,57.55-10.88,155.73-59.53,190.47-11.47,8.2-24.82,12.29-39.68,12.29-16.38,0-34.6-4.98-54.14-14.92-32.77-16.66-60.81-42.74-76.14-61.56-42.13-51.84-64.19-95.97-66.84-133.8-2.76.18-5.74.41-8.88.65-10.07.77-21.47,1.64-32.69,1.64-19.94,0-39.27-2.76-49.4-13.77-5.99-6.52-8.15-15.31-6.4-26.14,2.47-15.26,16.9-23.81,42.9-25.42,3.26-.2,6.6-.3,9.99-.3,17.39,0,36.07,2.44,52.55,4.96l.71.11c10.42-23.95,41.82-44.8,61.53-54.48,15.68-7.7,36.66-10.92,57.66-10.92M235.91,0v10S235.91,0,235.91,0c-17.22,0-41.97,2.07-62.07,11.94-7.96,3.91-45.96,23.68-62.75,52.5-14.92-2.16-31.63-4.11-47.63-4.11-3.68,0-7.25.11-10.61.31C13.88,63.06,2.99,80.36.71,94.45c-2.82,17.45,3.29,28.39,8.91,34.5,10.67,11.6,28.7,17,56.76,17,11.32,0,22.64-.85,32.69-1.61,5.56,37.64,27.88,80.11,67.96,129.43,16.01,19.66,45.26,46.83,79.37,64.17,20.87,10.62,40.61,16.01,58.68,16.01,17.05,0,32.36-4.76,45.5-14.16,12.73-9.09,23.9-22.45,33.2-39.72,7.98-14.82,14.62-32.54,19.71-52.65,8.36-33,12.4-72.89,10.79-106.72-.53-11.23-2.73-22.4-6.56-33.31,1.07-.66,2.21-1.35,3.39-2.07,3.91-2.39,8.3-5.07,12.39-7.61,7.46-4.64,17.14-10.86,25.83-17.9,9.78-7.92,16.63-15.51,20.96-23.2,6.04-10.73,7.12-21.92,3.14-32.36-4.67-12.29-14.62-19.53-28-20.39-.9-.06-1.84-.09-2.78-.09-8.38,0-18.17,2.33-29.94,7.11-11.5,4.68-23.16,11.02-32.03,16.02-8.14,4.59-15.3,8.74-22.89,13.14l-.61.35c-19.98-15.39-43.81-27.26-67.82-33.72C273.32,2.37,254.34,0,235.91,0h0Z"/>
    </g>
    <path d="M444.38,20.14c-6.48-.41-14.83,1.5-25.53,5.85-10.65,4.33-21.72,10.35-30.17,15.12-8.05,4.54-15.17,8.67-22.72,13.04l-2,1.16c12.27,12.06,21.81,26.11,31.11,40.7,2.12-1.31,4.7-2.89,7.54-4.62,3.9-2.38,8.22-5.02,12.27-7.54,7.06-4.39,16.18-10.25,24.17-16.72,8.15-6.6,13.71-12.66,17.01-18.52,3.69-6.55,4.38-12.62,2.11-18.55-2.4-6.32-6.79-9.47-13.79-9.92Z"/>
    <path d="M16.81,97.06c-1.44,8.94.13,15.77,4.81,20.86,13.74,14.94,51.78,12.03,76.96,10.1,2.1-.16,4.12-.32,6.06-.46.12-13.08,1.2-29.5,6.7-46.6-12.08-1.81-30.59-4.37-48.06-4.37-22.82,0-43.86,4.37-46.47,20.47Z"/>
    <ellipse class="st11" cx="316.82" cy="296.49" rx="30.56" ry="16.66" transform="translate(-32.77 39.45) rotate(-6.78)"/>
    <path class="st7" d="M348.68,136.88c9.93,0,17.99,10.06,17.99,22.47s-8.05,22.47-17.99,22.47-17.98-10.06-17.98-22.47c0-12.41,8.05-22.47,17.98-22.47Z"/>
    <path class="st3" d="M285.75,291.96c8.68-8.72,26.1-12.33,37.93-13.11,6.81-.44,14.56.21,19.98,4.83,4.61,3.95,7.54,11.47,5.08,17.33-5.07,11.96-25.02,12.99-35.83,13.2-6.66.13-13.54-.18-20.03-1.76-8.83-2.15-10.77-13.22-7.13-20.49Z"/>
    <path class="st3" d="M231.1,41.65c9.58-4.37,25.12-3.43,35.05-.47,18.5,5.52,12.56,104.56,10.75,105.13-13.19-16.62-67.21-83.62-67.21-83.62.69-9.2,13.97-17.65,21.4-21.03Z"/>
    <path class="st7" d="M202.6,154.86c9.93,0,17.98,10.06,17.98,22.48s-8.04,22.48-17.98,22.48-17.99-10.06-17.99-22.48,8.06-22.48,17.99-22.48Z"/>
    <path class="st12" d="M231.1,41.65c9.58-4.37,25.11-3.43,35.05-.47,18.5,5.52,12.56,104.56,10.75,105.13-13.18-16.62-67.2-83.62-67.2-83.62.69-9.2,13.97-17.65,21.4-21.03Z"/>
    <circle class="st7" cx="202.59" cy="177.34" r="11.24"/>
    <circle class="st7" cx="348.67" cy="159.35" r="11.18"/>
    <ellipse class="st0" cx="316.82" cy="296.47" rx="32.17" ry="17.54" transform="translate(-32.76 39.45) rotate(-6.78)"/>
  </g>
  <path class="st1" d="M1063.38,502.5l-11.47-59.98h-89.22l-32.63,59.98h-111.41l189.28-343.26h91.42l68.16,343.26h-104.13ZM1034.85,346.66l-5.57-30.12-16.43,30.12h22Z"/>
  <path class="st10" d="M847.91,485.22l170.23-308.7h67.03l61.3,308.7h-68.8l-11.47-59.98h-113.78l-32.63,59.98h-71.88ZM983.73,363.95h71.88l-14.11-76.29c-.3-1.62-.74-4.04-1.32-7.28-.59-3.23-1.14-6.47-1.65-9.7-.52-3.23-.85-5.66-.99-7.28-.74,1.76-1.8,4.12-3.2,7.06-1.4,2.94-2.87,5.88-4.41,8.82-1.54,2.94-2.83,5.29-3.86,7.06l-42.34,77.62Z"/>
  <path class="st1" d="M1206.59,502.5l60.32-343.26h149.01c18.86,0,35.3,3.33,48.87,9.88,13.61,6.58,24.83,15.48,33.35,26.45,8.23,10.6,14.27,22.46,17.96,35.26,3.52,12.24,5.3,24.68,5.3,36.97,0,16.74-3.1,32.82-9.23,47.78-6.16,15.05-15.17,28.49-26.8,39.94-11.62,11.45-25.84,20.54-42.28,27.03-16.29,6.43-34.78,9.7-54.96,9.7h-59.58l-19.4,110.25h-102.56ZM1394.75,293.74c5.87,0,10.49-1.04,13.36-3.02,3.39-2.33,5.71-4.88,7.12-7.8,1.57-3.27,2.37-6.13,2.37-8.5,0-4.61-.53-8.72-1.59-12.23-.61-2.05-1.44-2.89-2.17-3.44,0,0-1.5-1-6.31-1h-54.81l-6.53,36h48.54Z"/>
  <path class="st10" d="M1227.17,485.22l54.24-308.7h134.5c16.32,0,30.1,2.72,41.34,8.16,11.25,5.44,20.32,12.61,27.23,21.5,6.91,8.9,11.91,18.71,14.99,29.44,3.09,10.73,4.63,21.46,4.63,32.19,0,14.55-2.65,28.3-7.94,41.23-5.29,12.94-12.94,24.33-22.93,34.18-10,9.85-22.16,17.61-36.49,23.26-14.33,5.66-30.54,8.49-48.62,8.49h-74.09l-19.4,110.25h-67.47ZM1325.52,311.03h69.24c9.55,0,17.27-2.02,23.15-6.06,5.88-4.04,10.18-8.89,12.9-14.55,2.72-5.66,4.08-10.99,4.08-15.99,0-6.32-.77-12.05-2.32-17.2-1.54-5.14-4.3-9.22-8.27-12.24-3.97-3.01-9.56-4.52-16.76-4.52h-69.24l-12.79,70.56Z"/>
  <path class="st1" d="M1780.61,507.79c-22.7,0-42.8-4.73-59.72-14.05-16.74-9.22-30.68-21.91-41.44-37.71-10.32-15.16-18.11-32.48-23.15-51.5l-4.04-15.26,90.43-32.94c-8.5-4.73-16.49-10.34-23.83-16.74-9.75-8.5-17.71-19.09-23.64-31.47-6.02-12.58-9.08-27.92-9.08-45.6,0-20.48,5.37-39.24,15.97-55.75,10.51-16.38,25.65-29.48,44.99-38.94,18.85-9.21,41.54-13.88,67.46-13.88s46.64,4.72,63.16,14.02c16.56,9.33,29.31,21.36,37.9,35.75,8.22,13.79,13.37,28.05,15.29,42.38l1.94,14.39-85.64,27.11c1.54.72,3.09,1.45,4.65,2.19,11.6,5.51,22.52,12.48,32.48,20.7,10.71,8.86,19.47,19.96,26.04,33,6.71,13.34,10.11,29.41,10.11,47.79,0,22.82-6.08,43.39-18.06,61.15-11.82,17.51-28.57,31.34-49.77,41.09-20.58,9.46-44.82,14.26-72.05,14.26ZM1751.24,372.46c3.63,11.63,8.73,21.1,15.14,28.14,4.78,5.25,12.6,7.8,23.93,7.8,5.81,0,11.02-.79,15.48-2.34,3.55-1.24,6.25-2.85,8.02-4.8.59-.65,1.12-1.39,1.12-3.36,0-3.17-.93-4.62-1.94-5.71-2.92-3.16-7.11-6.16-12.45-8.88-6.82-3.48-14.46-7.01-22.7-10.51-9.34-3.92-19.08-8.37-28.9-13.2-.68-.34-1.36-.68-2.04-1.02l4.34,13.89ZM1788.65,259.28s.13.22.52.6c2.52,2.43,6.24,4.81,11.05,7.08,6.25,2.95,13.27,6.01,20.86,9.1l.11.05c5.18,2.15,10.51,4.46,15.96,6.9l-1.77-12.82c-.78-5.65-3.2-10.22-7.61-14.36-3.99-3.75-9.75-5.57-17.61-5.57-8.47,0-14.94,1.44-18.22,4.06-3.31,2.64-3.31,4.12-3.31,4.68,0,.19.02.28.02.29h0Z"/>
  <path class="st10" d="M1780.61,490.51c-19.84,0-36.97-3.97-51.38-11.91-14.41-7.94-26.24-18.7-35.5-32.3-9.26-13.6-16.17-29-20.73-46.2l61.74-22.49c4.41,14.11,10.69,25.65,18.85,34.62,8.16,8.97,20.4,13.45,36.71,13.45,7.79,0,14.85-1.1,21.17-3.31,6.32-2.21,11.36-5.36,15.1-9.48,3.75-4.11,5.62-9.11,5.62-14.99,0-6.91-2.17-12.71-6.5-17.42-4.34-4.7-10.11-8.89-17.31-12.57-7.2-3.67-15.14-7.35-23.81-11.03-9.12-3.82-18.45-8.08-28-12.79-9.56-4.7-18.34-10.55-26.35-17.53-8.01-6.98-14.48-15.62-19.4-25.91-4.93-10.29-7.39-23-7.39-38.15,0-17.2,4.41-32.67,13.23-46.42,8.82-13.74,21.5-24.66,38.04-32.74,16.54-8.08,36.49-12.13,59.87-12.13s40.72,3.93,54.68,11.8c13.96,7.87,24.48,17.72,31.53,29.55,7.06,11.83,11.39,23.78,13.01,35.83l-61.3,19.4c-1.32-9.55-5.62-17.75-12.9-24.59-7.28-6.84-17.09-10.25-29.44-10.25s-22.46,2.61-29,7.83c-6.54,5.22-9.81,11.28-9.81,18.19,0,5.15,1.95,9.59,5.84,13.34,3.89,3.75,9.11,7.17,15.66,10.25,6.54,3.09,13.78,6.25,21.72,9.48,9.55,3.97,19.51,8.42,29.88,13.34,10.36,4.93,19.99,11.06,28.89,18.41,8.89,7.35,16.1,16.5,21.61,27.45,5.51,10.95,8.27,24.29,8.27,40.02,0,19.4-5.04,36.57-15.1,51.49-10.07,14.92-24.29,26.61-42.67,35.06-18.38,8.45-39.99,12.68-64.83,12.68Z"/>
  <polygon class="st1" points="2007.61 502.5 2032.34 362.53 1944.1 159.24 2052.33 159.24 2096.44 260.76 2175.9 159.24 2296.33 159.24 2134.02 368.5 2110.65 502.5 2007.61 502.5"/>
  <path class="st10" d="M2028.21,485.22l22.05-124.8-79.82-183.9h70.56l51.16,117.75,92.17-117.75h76.73l-143.33,184.78-21.61,123.92h-67.91Z"/>
  <polygon class="st1" points="2473.33 502.5 2400.7 356.47 2375.06 502.5 2273.82 502.5 2334.14 159.24 2422.07 159.24 2490.96 300.56 2515.83 159.24 2617.07 159.24 2556.75 502.5 2473.33 502.5"/>
  <path class="st10" d="M2294.4,485.22l54.24-308.7h62.62l77.62,159.2c1.62,3.24,3.53,7.46,5.73,12.68,2.21,5.22,3.82,10.4,4.85,15.54.29-5.29.73-10.62,1.32-15.99.59-5.36,1.17-9.88,1.76-13.56l27.78-157.88h66.15l-54.24,308.7h-58.21l-82.91-166.7c-.88-1.76-1.84-3.97-2.87-6.62-1.03-2.65-2.06-5.51-3.09-8.6-1.03-3.09-1.98-6.25-2.87-9.48,0,2.65-.11,5.51-.33,8.6s-.55,6.1-.99,9.04c-.44,2.94-.88,5.59-1.32,7.94l-29.11,165.82h-66.15Z"/>
  <path class="st1" d="M2754.51,507.35c-20.82,0-39.42-3.98-55.29-11.82-15.91-7.86-29.29-18.93-39.78-32.89-10.17-13.52-17.81-29.47-22.7-47.39-4.72-17.28-7.11-36.02-7.11-55.71,0-26.17,3.74-51.58,11.13-75.54,7.45-24.18,18.42-46.17,32.6-65.37,14.52-19.66,32.43-35.4,53.23-46.79,21.16-11.58,45.24-17.45,71.58-17.45,23.01,0,42.96,4.34,59.28,12.89,16.14,8.46,29.39,19.56,39.37,33.01,9.58,12.91,16.66,26.64,21.04,40.8l4.65,15.02-91.15,37.92-6.49-16.31c-3.58-9.01-7.9-15.37-12.84-18.89-4.76-3.4-10.16-5.05-16.53-5.05-9.61,0-17.67,2.44-24.65,7.45-7.83,5.63-14.51,13.27-19.85,22.7-5.78,10.2-10.19,21.66-13.1,34.04-2.99,12.67-4.5,25.47-4.5,38.04,0,10.68,1.26,20.46,3.74,29.06,2.09,7.26,5.15,12.71,9.36,16.68,2.03,1.91,5.65,4.44,13.73,4.44,6.73,0,12.58-1.3,17.9-3.99,5.87-2.96,10.88-6.64,14.91-10.94,4.19-4.48,7.34-8.9,9.36-13.14l7.07-14.88,92.49,38.65-9.93,17.04c-11.69,20.07-24.68,36.76-38.59,49.63-14.29,13.22-29.94,23.1-46.51,29.38-16.45,6.23-34.09,9.39-52.43,9.39Z"/>
  <path class="st10" d="M2754.51,490.07c-18.23,0-34.1-3.34-47.63-10.03-13.53-6.69-24.73-15.95-33.63-27.78-8.9-11.83-15.51-25.69-19.84-41.56-4.34-15.88-6.5-32.93-6.5-51.16,0-24.55,3.45-48.03,10.36-70.45,6.91-22.42,16.9-42.48,29.99-60.2,13.08-17.71,28.96-31.68,47.63-41.9,18.67-10.21,39.76-15.32,63.28-15.32,20.29,0,37.38,3.64,51.27,10.91s25.06,16.61,33.52,28c8.45,11.39,14.59,23.26,18.41,35.61l-60.42,25.14c-4.85-12.2-11.14-21.06-18.85-26.57-7.72-5.51-16.58-8.27-26.57-8.27-13.23,0-24.81,3.57-34.73,10.69-9.92,7.13-18.19,16.54-24.81,28.22s-11.58,24.55-14.88,38.59c-3.31,14.04-4.96,28.04-4.96,42.01,0,12.35,1.47,23.63,4.41,33.85,2.94,10.22,7.64,18.38,14.11,24.48,6.47,6.1,14.99,9.15,25.58,9.15,9.41,0,17.97-1.95,25.69-5.84,7.72-3.89,14.29-8.74,19.73-14.55,5.44-5.8,9.55-11.65,12.35-17.53l59.09,24.7c-10.88,18.67-22.68,33.88-35.39,45.64-12.72,11.76-26.35,20.4-40.9,25.91s-29.99,8.27-46.31,8.27Z"/>
  <path class="st3" d="M3234.01,504.1c-65.9,0-127.85-25.66-174.44-72.26-46.6-46.6-72.26-108.55-72.26-174.44s25.66-127.85,72.26-174.44c46.6-46.6,108.55-72.26,174.44-72.26s127.85,25.66,174.44,72.26c46.6,46.6,72.26,108.55,72.26,174.44s-25.66,127.85-72.26,174.44c-46.6,46.6-108.55,72.26-174.44,72.26Z"/>
  <path class="st7" d="M3234.01,507.89c-66.91,0-129.82-26.06-177.13-73.37-47.31-47.31-73.37-110.22-73.37-177.13s26.06-129.82,73.37-177.13c47.31-47.31,110.22-73.37,177.13-73.37s129.82,26.06,177.13,73.37c47.31,47.31,73.37,110.22,73.37,177.13s-26.06,129.82-73.37,177.13c-47.31,47.31-110.22,73.37-177.13,73.37ZM3234.01,14.49c-64.88,0-125.88,25.27-171.76,71.14-45.88,45.88-71.14,106.88-71.14,171.76s25.27,125.88,71.14,171.76c45.88,45.88,106.88,71.14,171.76,71.14s125.88-25.27,171.76-71.14c45.88-45.88,71.15-106.88,71.15-171.76s-25.27-125.88-71.15-171.76c-45.88-45.88-106.88-71.14-171.76-71.14Z"/>
  <circle class="st8" cx="3234.01" cy="257.39" r="231.2"/>
  <g>
    <path class="st6" d="M3191.22,440.36c-9.47-2.21-18.81-5.15-27.92-8.85-22.62-9.17-43.81-22.93-62.15-41.27-18.34-18.34-32.1-39.53-41.27-62.15-9.17-22.62-13.76-46.66-13.76-70.7s4.59-48.08,13.76-70.7c9.17-22.62,22.93-43.81,41.27-62.15,18.34-18.34,39.53-32.1,62.15-41.27"/>
    <polygon class="st9" points="3186.61 408.76 3234.01 445.27 3178.69 468.07 3186.61 408.76"/>
  </g>
  <g>
    <path class="st6" d="M3276.79,74.43c9.47,2.21,18.81,5.15,27.92,8.85,22.62,9.17,43.81,22.93,62.15,41.27,18.34,18.34,32.1,39.53,41.27,62.15,9.17,22.62,13.76,46.66,13.76,70.7s-4.59,48.08-13.76,70.7c-9.17,22.62-22.93,43.81-41.27,62.15-18.34,18.34-39.53,32.1-62.15,41.27"/>
    <polygon class="st9" points="3281.4 106.03 3234.01 69.52 3289.32 46.72 3281.4 106.03"/>
  </g>
  <g>
    <path class="st4" d="M3283.99,358.46c-2,.99-4.04,1.93-6.11,2.8-13.49,5.7-28.31,8.86-43.88,8.86s-30.39-3.15-43.88-8.86-25.63-13.96-35.83-24.16c-10.2-10.2-18.45-22.34-24.16-35.83-5.7-13.49-8.86-28.31-8.86-43.88s3.15-30.39,8.86-43.88"/>
    <polygon class="st9" points="3263 340.86 3313.71 337.1 3291.62 382.91 3263 340.86"/>
  </g>
  <g>
    <path class="st4" d="M3184.02,156.33c2-.99,4.04-1.93,6.11-2.8,13.49-5.7,28.31-8.86,43.88-8.86s30.39,3.15,43.88,8.86c13.49,5.7,25.63,13.96,35.83,24.16,10.2,10.2,18.45,22.34,24.16,35.83,5.7,13.49,8.86,28.31,8.86,43.88s-3.15,30.39-8.86,43.88"/>
    <polygon class="st9" points="3205.01 173.93 3154.3 177.69 3176.39 131.88 3205.01 173.93"/>
  </g>
  <g>
    <path class="st5" d="M3269.03,285.8c-.97,1.2-2.02,2.36-3.14,3.48-4.4,4.4-9.49,7.7-14.92,9.9-5.43,2.2-11.2,3.3-16.97,3.3s-11.54-1.1-16.97-3.3c-5.43-2.2-10.51-5.5-14.92-9.9-4.4-4.4-7.7-9.49-9.9-14.92"/>
    <polygon class="st9" points="3245.81 282.81 3279.1 257.39 3284.47 298.93 3245.81 282.81"/>
  </g>
  <g>
    <path class="st5" d="M3198.99,228.99c.97-1.2,2.02-2.36,3.14-3.48,4.4-4.4,9.49-7.7,14.92-9.9,5.43-2.2,11.2-3.3,16.97-3.3s11.54,1.1,16.97,3.3,10.51,5.5,14.92,9.9c4.4,4.4,7.7,9.49,9.9,14.92"/>
    <polygon class="st9" points="3222.2 231.98 3188.92 257.39 3183.55 215.86 3222.2 231.98"/>
  </g>
</svg>